<svg xmlns="http://www.w3.org/2000/svg" viewBox="0 0 24 24" id="Design-Drawing-Board--Streamline-Pixel" height="24" width="24">
  <desc>
    Design Drawing Board Streamline Icon: https://streamlinehq.com
  </desc>
  <title>design-drawing-board</title>
  <g>
    <path d="m22.856250000000003 19.424999999999997 -1.1400000000000001 0 0 3.4275 -1.1400000000000001 0 0 -2.2800000000000002 -1.1475 0 0 3.4275 3.4275 0 0 -4.574999999999999z" fill="#000000" stroke-width="0.75"></path>
    <path d="M20.576249999999998 14.857499999999998h1.1400000000000001v4.5675h-1.1400000000000001Z" fill="#000000" stroke-width="0.75"></path>
    <path d="M18.28875 17.137500000000003h1.1400000000000001v3.435h-1.1400000000000001Z" fill="#000000" stroke-width="0.75"></path>
    <path d="M18.28875 12.57h1.1400000000000001v2.2874999999999996h1.1475v-3.4275h-1.1475V5.715h1.1475v-4.574999999999999h-8.0025V0h-1.1400000000000001v1.1400000000000001H3.4312500000000004v4.574999999999999H4.574999999999999V2.2874999999999996h12.5775v3.4275h-1.1475v5.715h-1.1400000000000001v4.5675H2.2912500000000002v-4.5675h-1.1475v5.7075000000000005h2.2874999999999996v3.435H4.574999999999999v-3.435h1.1475v3.435H4.574999999999999v2.2800000000000002H3.4312500000000004v-2.2800000000000002h-1.1400000000000001V24h3.4275v-2.2874999999999996h6.855V24h3.4275v-3.4275h-1.1400000000000001v2.2800000000000002h-1.1475v-2.2800000000000002h-6.855V19.424999999999997h6.855v1.1475h1.1475v-3.435h1.1400000000000001v3.435h1.1475v-3.435h1.1400000000000001Zm-4.574999999999999 5.715h-6.855v-1.1475h6.855Z" fill="#000000" stroke-width="0.75"></path>
    <path d="M13.713750000000001 7.995h1.1475v2.2874999999999996h-1.1475Z" fill="#000000" stroke-width="0.75"></path>
    <path d="M12.57375 10.2825h1.1400000000000001v2.2874999999999996h-1.1400000000000001Z" fill="#000000" stroke-width="0.75"></path>
    <path d="M12.57375 6.855h1.1400000000000001v1.1400000000000001h-1.1400000000000001Z" fill="#000000" stroke-width="0.75"></path>
    <path d="M12.57375 3.4275h1.1400000000000001v1.1400000000000001h-1.1400000000000001Z" fill="#000000" stroke-width="0.75"></path>
    <path d="M6.85875 12.57h5.715v1.1400000000000001h-5.715Z" fill="#000000" stroke-width="0.75"></path>
    <path d="M10.286249999999999 7.995h1.1475v1.1475h-1.1475Z" fill="#000000" stroke-width="0.75"></path>
    <path d="M9.14625 10.2825h1.1400000000000001v1.1475h-1.1400000000000001Z" fill="#000000" stroke-width="0.75"></path>
    <path d="M6.85875 7.995h1.1475v1.1475h-1.1475Z" fill="#000000" stroke-width="0.75"></path>
    <path d="m12.57375 6.855 0 -2.2874999999999996 -1.1400000000000001 0 0 1.1475 -1.1475 0 0 -2.2874999999999996 -1.1400000000000001 0 0 2.2874999999999996 -1.1400000000000001 0 0 -1.1475 -1.1475 0 0 1.1475 -1.1400000000000001 0 0 1.1400000000000001 6.855 0z" fill="#000000" stroke-width="0.75"></path>
    <path d="M5.71875 10.2825h1.1400000000000001v2.2874999999999996h-1.1400000000000001Z" fill="#000000" stroke-width="0.75"></path>
    <path d="M5.71875 3.4275h1.1400000000000001v1.1400000000000001h-1.1400000000000001Z" fill="#000000" stroke-width="0.75"></path>
    <path d="M4.57125 6.855h1.1475v3.4275h-1.1475Z" fill="#000000" stroke-width="0.75"></path>
    <path d="M2.2912500000000002 5.715h1.1400000000000001v5.715h-1.1400000000000001Z" fill="#000000" stroke-width="0.75"></path>
  </g>
</svg>