<svg xmlns="http://www.w3.org/2000/svg" viewBox="0 0 24 24" id="Music-Notes-Music-1--Streamline-Pixel" height="24" width="24">
  <desc>
    Music Notes Music 1 Streamline Icon: https://streamlinehq.com
  </desc>
  <title>music-notes-music-1</title>
  <g>
    <path d="M21.138749999999998 5.71875h1.1475v2.2800000000000002h-1.1475Z" fill="#000000" stroke-width="0.75"></path>
    <path d="M19.99875 4.57125h1.1400000000000001v1.1475h-1.1400000000000001Z" fill="#000000" stroke-width="0.75"></path>
    <path d="M18.85125 3.4312500000000004h1.1475v1.1400000000000001h-1.1475Z" fill="#000000" stroke-width="0.75"></path>
    <path d="m14.283750000000001 17.14125 2.2874999999999996 0 0 -1.1400000000000001 1.1400000000000001 0 0 -12.57 1.1400000000000001 0 0 -1.1475 -1.1400000000000001 0 0 -1.1400000000000001 -1.1400000000000001 0 0 11.43 -2.2874999999999996 0 0 1.1400000000000001 -1.1400000000000001 0 0 2.2874999999999996 1.1400000000000001 0 0 1.1400000000000001z" fill="#000000" stroke-width="0.75"></path>
    <path d="M9.70875 11.42625h1.1475v2.2874999999999996h-1.1475Z" fill="#000000" stroke-width="0.75"></path>
    <path d="M8.568750000000001 10.286249999999999h1.1400000000000001v1.1400000000000001h-1.1400000000000001Z" fill="#000000" stroke-width="0.75"></path>
    <path d="M7.428749999999999 9.14625h1.1400000000000001v1.1400000000000001h-1.1400000000000001Z" fill="#000000" stroke-width="0.75"></path>
    <path d="m2.8537500000000002 22.856250000000003 2.2874999999999996 0 0 -1.1400000000000001 1.1400000000000001 0 0 -12.57 1.1475 0 0 -1.1475 -1.1475 0 0 -1.1400000000000001 -1.1400000000000001 0 0 11.43 -2.2874999999999996 0 0 1.1400000000000001 -1.1400000000000001 0 0 2.2874999999999996 1.1400000000000001 0 0 1.1400000000000001z" fill="#000000" stroke-width="0.75"></path>
  </g>
</svg>